<svg xmlns="http://www.w3.org/2000/svg" viewBox="0 0 500 500"><g id="freepik--background-simple--inject-95"><path d="M356.39,130.86s-40.26-44.11-104-42S134.28,133.71,89.33,167.15s-57,85.38-30.87,125.93,67.77,23.48,120.78,49.8,63.08,41.27,122.13,34.87,104-71.86,97.3-141.59S356.39,130.86,356.39,130.86Z" style="fill:#FF7600"></path><path d="M356.39,130.86s-40.26-44.11-104-42S134.28,133.71,89.33,167.15s-57,85.38-30.87,125.93,67.77,23.48,120.78,49.8,63.08,41.27,122.13,34.87,104-71.86,97.3-141.59S356.39,130.86,356.39,130.86Z" style="fill:#fff;opacity:0.7000000000000001"></path></g><g id="freepik--Floor--inject-95"><ellipse cx="257.62" cy="392.44" rx="198.52" ry="10.83" style="fill:#FF7600"></ellipse><ellipse cx="257.62" cy="392.44" rx="198.52" ry="10.83" style="fill:#fff;opacity:0.30000000000000004"></ellipse></g><g id="freepik--Device--inject-95"><rect x="242.96" y="109" width="122.68" height="278.02" rx="7.92" style="fill:#fff;stroke:#263238;stroke-linecap:round;stroke-linejoin:round"></rect><path d="M361.54,157.67a1.63,1.63,0,0,1-1.63-1.63V134.19a1.64,1.64,0,0,1,3.27,0V156A1.64,1.64,0,0,1,361.54,157.67Z" style="fill:#263238"></path><path d="M361.54,177.91a1.63,1.63,0,0,1-1.63-1.63V164.07a1.64,1.64,0,0,1,3.27,0v12.21A1.64,1.64,0,0,1,361.54,177.91Z" style="fill:#263238"></path><rect x="233.71" y="109" width="122.68" height="278.02" rx="7.92" style="fill:#263238;stroke:#263238;stroke-linecap:round;stroke-linejoin:round"></rect><rect x="241.88" y="127.51" width="106.34" height="238.46" style="fill:#FF7600"></rect><line x1="279.26" y1="119.89" x2="307.57" y2="119.89" style="fill:none;stroke:#fff;stroke-linecap:round;stroke-linejoin:round;stroke-width:3px"></line><path d="M291.24,374.41c0,1.95-1.22,3.53-2.73,3.53s-2.72-1.58-2.72-3.53,1.22-3.54,2.72-3.54S291.24,372.45,291.24,374.41Z" style="fill:#fff"></path><ellipse cx="295.05" cy="165.35" rx="18.44" ry="21.5" style="fill:#fff"></ellipse><ellipse cx="295.05" cy="156.91" rx="7" ry="8.17" style="fill:#263238;stroke:#263238;stroke-linecap:round;stroke-linejoin:round"></ellipse><path d="M295.05,167.25c-7,0-12.73,5.37-12.73,12a11.14,11.14,0,0,0,.17,1.84,16.54,16.54,0,0,0,25.12,0,12.34,12.34,0,0,0,.16-1.84C307.77,172.62,302.07,167.25,295.05,167.25Z" style="fill:#263238;stroke:#263238;stroke-linecap:round;stroke-linejoin:round"></path><path d="M317.47,259H272.63a4.48,4.48,0,0,1-4.3-4.65V226.67c0-15.95,12-28.93,26.72-28.93s26.71,13,26.71,28.93v27.66A4.48,4.48,0,0,1,317.47,259Zm-40.55-9.3h36.25v-23c0-10.82-8.13-19.63-18.12-19.63s-18.13,8.81-18.13,19.63Z" style="fill:#263238"></path><rect x="263.92" y="240.11" width="62.26" height="58.9" style="fill:#fff"></rect><path d="M304.12,280.66l-4.62-11.11a8.19,8.19,0,0,0,3.25-6.62c0-4.43-3.31-8-7.4-8s-7.39,3.58-7.39,8a8.18,8.18,0,0,0,3.24,6.62l-4.61,11.11Z" style="fill:#263238;stroke:#263238;stroke-linecap:round;stroke-linejoin:round"></path><path d="M276.08,351.94a.57.57,0,0,0,.33.11.52.52,0,0,0,.43-.23l71.38-97.09v-1.84L276,351.18A.54.54,0,0,0,276.08,351.94Z" style="fill:#fff"></path><path d="M333.86,162.49a.54.54,0,0,0,.12.76.55.55,0,0,0,.76-.12l13.48-18.33V143Z" style="fill:#fff"></path><path d="M241.88,289.46,330,169.63a.54.54,0,0,0-.88-.64l-87.2,118.63Z" style="fill:#fff"></path><path d="M267.8,363.76a.57.57,0,0,0,.44-.22l5-6.76a.54.54,0,0,0-.12-.76.55.55,0,0,0-.76.12l-5,6.75a.54.54,0,0,0,.11.76A.51.51,0,0,0,267.8,363.76Z" style="fill:#fff"></path><path d="M348.22,274.17l-58.6,79.71a.54.54,0,0,0,.44.86.53.53,0,0,0,.44-.22L348.22,276Z" style="fill:#fff"></path></g><g id="freepik--Character--inject-95"><path d="M142.41,162.14a15.89,15.89,0,0,0,1.4-7c0-4.47-5.41-7.06-11.77-7.77s-9.18,1.88-8.24,3.53a15.4,15.4,0,0,0,3.53,3.53s-6.36-3.53-10.6-.7,1.89,1.65.71,4.47-7.77,1.65-9.42,9.18,3.06,15.07-1.18,18.37-17-1.18-20.72,7.06,1.56,11.9-7.38,17.08-15.46,10.24-12.87,22.95S76.94,250,93.66,245.51s15.54-14.6,21-25,13.9-8.24,16.49-14.13-.71-12.95-.47-18.37,5.65-6.59,7.77-13S142.41,162.14,142.41,162.14Z" style="fill:#263238;stroke:#263238;stroke-linecap:round;stroke-linejoin:round"></path><path d="M67.82,232.6a6.26,6.26,0,0,0-.65,2.85" style="fill:none;stroke:#fff;stroke-linecap:round;stroke-linejoin:round;stroke-width:0.5px"></path><path d="M133.37,157.47s-2.94-3.4,2.72-1.82c7.13,2-1.24,10.25-4.46,11.91-6.46,3.31-15,2.25-20,8.27-4.54,5.44,1.59,11.11-1.13,15.42s-13.61,1.81-17.23,7,6.57,16.33-3.86,22.45c-7.54,4.43-15.8,6.13-19.79,9.64" style="fill:none;stroke:#fff;stroke-linecap:round;stroke-linejoin:round;stroke-width:0.5px"></path><path d="M116.46,177.59a8.17,8.17,0,0,0-.54,4.59c.9,3.85,6.12,11.11,1.36,15.19S104.35,201.22,103,206s1.36,17.91-3.17,24-13.38,5.67-18.14,9.75-4.08,6.35-4.08,6.35" style="fill:none;stroke:#fff;stroke-linecap:round;stroke-linejoin:round;stroke-width:0.5px"></path><path d="M118.86,173.11a19.93,19.93,0,0,0-1.14,1.81" style="fill:none;stroke:#fff;stroke-linecap:round;stroke-linejoin:round;stroke-width:0.5px"></path><path d="M145.46,232.24l1.15,9s6,6,10.41,9.71,15.71,11.56,15.71,11.56L167,264.14s-18.73-11.1-22.43-12-6.47-6.24-7.62-7.86S142.45,230.62,145.46,232.24Z" style="fill:#fff;stroke:#263238;stroke-linecap:round;stroke-linejoin:round"></path><path d="M156.9,378.67s5.66,4.78,8,6.38,5.07,2.32,4.64,3.19-1.6,1.74-7.11,1-7.1-2.61-8.12-2.9-3.48.44-5.36-.72,1.1-8.07,1.1-8.07A5.38,5.38,0,0,0,156.9,378.67Z" style="fill:#fff;stroke:#263238;stroke-linecap:round;stroke-linejoin:round"></path><path d="M169.52,388.24a.74.74,0,0,0,0-.14,25.77,25.77,0,0,1-9.46-.89c-3.56-.84-4.61-2.73-8-2.73a11.62,11.62,0,0,1-3.91-.64,2.06,2.06,0,0,0,.71,1.79c1.88,1.16,4.35.43,5.36.72s2.61,2.18,8.12,2.9S169.08,389.11,169.52,388.24Z" style="fill:#fff;stroke:#263238;stroke-linecap:round;stroke-linejoin:round"></path><path d="M127.27,185.4s1.09,7.34-.31,10.3-5.78,3.28-9.52,3.91-12.33,3.9-11.4,12.33,11.71,26.69,11.71,31.84-3.28,7.8-6.87,17.79-3.12,28.57-2,40.59a126.9,126.9,0,0,0,4.68,23.41s-9,14.52-13,20.76-18,33.41-18,33.41,0,.93,2.18,1.56a13.68,13.68,0,0,0,4.69.31s26.84-32.31,31.84-37.77,9.68-15,10.3-19.36-.15-31.06-.15-31.06,5.61,13.42,10,20.29a144.23,144.23,0,0,1,7.32,13,78.58,78.58,0,0,0,0,17c1.09,7.8.17,32.86,1.26,34.89s5.32,1.18,6.26.25,1.38-7,1.38-7,1.87-19,3-27.94,3-16.55,2.35-18.58-4.53-23.73-7.5-34-12-29.5-14-34.49-3.13-9.53-2.81-11.09,6.4-10.92,8-13.42a12.34,12.34,0,0,0,.31-11.08c-1.87-4.06,0-9.53-.31-12.8s-5.15-4.69-7.65-5.93-3.44-4.06-3.44-6.4A18,18,0,0,1,137,190.4S129.3,185.4,127.27,185.4Z" style="fill:#fff;stroke:#263238;stroke-linecap:round;stroke-linejoin:round"></path><path d="M146.19,218.79a51.51,51.51,0,0,1-2.05-6.41" style="fill:none;stroke:#263238;stroke-linecap:round;stroke-linejoin:round"></path><path d="M125.92,236.17s2.82.62,8.47-2.2" style="fill:none;stroke:#263238;stroke-linecap:round;stroke-linejoin:round"></path><path d="M155.52,291.23c-2.83-9.84-11.22-27.81-13.73-33.74-12,4.5-23.22.66-28.49-1.82-.76,1.66-1.58,3.58-2.42,5.9-3.59,10-3.12,28.57-2,40.59a126.9,126.9,0,0,0,4.68,23.41s-9,14.52-13,20.76-18,33.41-18,33.41,0,.93,2.18,1.56a13.68,13.68,0,0,0,4.69.31s26.84-32.31,31.84-37.77,9.68-15,10.3-19.36-.15-31.06-.15-31.06,5.61,13.42,10,20.29a144.23,144.23,0,0,1,7.32,13,78.58,78.58,0,0,0,0,17c1.09,7.8.17,32.86,1.26,34.89s5.32,1.18,6.26.25,1.38-7,1.38-7,1.87-19,3-27.94,3-16.55,2.35-18.58S158.49,301.53,155.52,291.23Z" style="fill:#263238;stroke:#263238;stroke-linecap:round;stroke-linejoin:round"></path><polygon points="216.66 281.32 216.66 279.28 218.37 279.28 218.37 263.26 216.66 263.26 199.78 263.26 198.07 263.26 198.07 279.28 199.78 279.28 199.78 281.32 198.06 281.32 198.06 285.04 204.65 285.04 204.65 283.79 211.79 283.79 211.79 285.04 218.38 285.04 218.38 281.32 216.66 281.32" style="fill:#FF7600;stroke:#263238;stroke-linecap:round;stroke-linejoin:round"></polygon><path d="M107.56,258.47H225.32a1.78,1.78,0,0,1,1.78,1.78v3.58a1.78,1.78,0,0,1-1.78,1.78H107.56a0,0,0,0,1,0,0v-7.15A0,0,0,0,1,107.56,258.47Z" style="fill:#FF7600;stroke:#263238;stroke-linecap:round;stroke-linejoin:round"></path><rect x="183.92" y="257.4" width="9.15" height="9.29" rx="0.99" style="fill:#FF7600;stroke:#263238;stroke-linecap:round;stroke-linejoin:round"></rect><circle cx="92.9" cy="262.04" r="18.59" transform="translate(-180.71 311.38) rotate(-80.7)" style="fill:#FF7600;stroke:#263238;stroke-linecap:round;stroke-linejoin:round"></circle><path d="M96.72,262a6.5,6.5,0,0,0,3.69-5.68c0-3.65-3.36-6.61-7.51-6.61s-7.51,3-7.51,6.61A6.48,6.48,0,0,0,89.08,262a6.51,6.51,0,0,0-3.69,5.69c0,3.65,3.36,6.61,7.51,6.61s7.51-3,7.51-6.61A6.53,6.53,0,0,0,96.72,262Z" style="fill:#fff;stroke:#263238;stroke-linecap:round;stroke-linejoin:round"></path><path d="M169.06,265.77s5.82,2.46,7.62,2.46,3.88-1.81,4.91-4,1-3.23.39-2.71l-1.29,1s1-2.19-.13-1.93a3.16,3.16,0,0,0-1.81,1.55s-.13-1.94-1.16-1a11.84,11.84,0,0,0-1.81,2.07s-.13-2.45-.78-1.81-3.09,4.13-3.09,4.13Z" style="fill:#fff;stroke:#263238;stroke-linecap:round;stroke-linejoin:round"></path><path d="M175.78,263.19s-.39,3.1-2.32,3.62" style="fill:#fff;stroke:#263238;stroke-linecap:round;stroke-linejoin:round"></path><path d="M178.75,262.16s-1,4.9-2.58,5.68" style="fill:#fff;stroke:#263238;stroke-linecap:round;stroke-linejoin:round"></path><path d="M180.69,262.54a27.87,27.87,0,0,1-2.07,5.17" style="fill:#fff;stroke:#263238;stroke-linecap:round;stroke-linejoin:round"></path><path d="M138.66,202.22a7.1,7.1,0,0,1-3.12-6.2A18,18,0,0,1,137,190.4s-7.65-5-9.68-5c0,0,1.09,7.34-.31,10.3a4.7,4.7,0,0,1-2.13,2.12,59.62,59.62,0,0,0,7.45,14C135.14,215.35,136.51,207.91,138.66,202.22Z" style="fill:#fff;stroke:#263238;stroke-linecap:round;stroke-linejoin:round"></path><path d="M115.05,200.62a12.49,12.49,0,0,0-9,6.59c-3.08,5.94-16.54,32.9-15.39,34.51,6.54,9.2,30.33,15.82,32.75,18.24a55,55,0,0,0,7.93,6.85c2.42,1.54,7.25.88,8.13.44s1.54-2.42,0-2.42a2.57,2.57,0,0,1-2.54-2c-.22-.88,2.42.88,3.74.22s-2.95-3.07-4.27-4.17-2.42-2.63-4.18-2.63-5.07,0-5.07,0-8.1-5.87-13-10.24a74.37,74.37,0,0,0-12.41-9.06l14.85-24.43" style="fill:#fff;stroke:#263238;stroke-linecap:round;stroke-linejoin:round"></path><path d="M136.39,258.89c-1.32-1.1-2.42-2.63-4.18-2.63s-5.07,0-5.07,0-8.1-5.87-13-10.24a74.37,74.37,0,0,0-12.41-9.06l5.94-9.78a19.87,19.87,0,0,0-10.06-2.87c-4,8.34-7.59,16.58-7,17.45,6.54,9.2,30.33,15.82,32.75,18.24a55,55,0,0,0,7.93,6.85c2.42,1.54,7.25.88,8.13.44s1.54-2.42,0-2.42a2.57,2.57,0,0,1-2.54-2c-.22-.88,2.42.88,3.74.22S137.71,260,136.39,258.89Z" style="fill:#fff;stroke:#263238;stroke-linecap:round;stroke-linejoin:round"></path><path d="M144.44,174.63c-.78-1.56-.78-2.81-.47-5s-1.56-7.5-1.56-7.5l0,0c-1.91,3.3-7.43,5.26-9.87,6-2.69.82,1.24,2.68.82,5.17s-5.79,3.93-5.79,3.93S126,174,123.82,174s-3.73,5-2.49,7.65a3.54,3.54,0,0,0,3.91,2.05s-.15,4.69,2.81,6.09a55,55,0,0,0,9.84,3.59c1.87.31,3.74-.62,4.52-3.43a64.2,64.2,0,0,0,1.25-8.59,20.09,20.09,0,0,0,3.59-3C148,177.28,145.22,176.19,144.44,174.63Z" style="fill:#fff;stroke:#263238;stroke-linecap:round;stroke-linejoin:round"></path><path d="M141.4,174.7c0,.86-.28,1.55-.62,1.55s-.62-.69-.62-1.55.28-1.55.62-1.55S141.4,173.84,141.4,174.7Z" style="fill:#263238"></path><path d="M138.71,172.12s1.66-1.87,2.9-1.45" style="fill:none;stroke:#263238;stroke-linecap:round;stroke-linejoin:round"></path><path d="M141.61,184.94a4.5,4.5,0,0,1-4.35-1" style="fill:none;stroke:#263238;stroke-linecap:round;stroke-linejoin:round"></path><path d="M82.63,379.74s-3.73,7.48-3.59,8.5,7.54,6.38,11,8.26,9.72,2.18,9.28-.43-6.38-4.35-7.83-8.27a63.38,63.38,0,0,1-2-6.19A12.82,12.82,0,0,1,82.63,379.74Z" style="fill:#fff;stroke:#263238;stroke-linecap:round;stroke-linejoin:round"></path><path d="M99.34,396.11A14.61,14.61,0,0,1,91.51,395c-5.37-2.33-10.57-7.09-12-8.44a5.36,5.36,0,0,0-.48,1.71c.15,1,7.54,6.38,11,8.26S99.7,398.67,99.34,396.11Z" style="fill:#fff;stroke:#263238;stroke-linecap:round;stroke-linejoin:round"></path></g></svg>